<mxfile host="app.diagrams.net" agent="Mozilla/5.0 (Windows NT 10.0; Win64; x64; rv:136.0) Gecko/20100101 Firefox/136.0" version="26.1.1" pages="3">
  <diagram name="menu" id="ZyBIyQdswJQ9UE6iSOdF">
    <mxGraphModel dx="1222" dy="678" grid="1" gridSize="10" guides="1" tooltips="1" connect="1" arrows="1" fold="1" page="1" pageScale="1" pageWidth="2000" pageHeight="2000" math="0" shadow="0">
      <root>
        <mxCell id="0" />
        <mxCell id="1" parent="0" />
        <mxCell id="XM0atkz2h3PpJyydnJVA-1" style="edgeStyle=orthogonalEdgeStyle;rounded=0;orthogonalLoop=1;jettySize=auto;html=1;exitX=0.5;exitY=1;exitDx=0;exitDy=0;exitPerimeter=0;entryX=0.5;entryY=0;entryDx=0;entryDy=0;" edge="1" parent="1" source="XM0atkz2h3PpJyydnJVA-2" target="XM0atkz2h3PpJyydnJVA-4">
          <mxGeometry relative="1" as="geometry" />
        </mxCell>
        <mxCell id="XM0atkz2h3PpJyydnJVA-2" value="mulai" style="strokeWidth=2;html=1;shape=mxgraph.flowchart.terminator;whiteSpace=wrap;" vertex="1" parent="1">
          <mxGeometry x="570" y="160" width="100" height="60" as="geometry" />
        </mxCell>
        <mxCell id="XM0atkz2h3PpJyydnJVA-3" style="edgeStyle=orthogonalEdgeStyle;rounded=0;orthogonalLoop=1;jettySize=auto;html=1;exitX=0.5;exitY=1;exitDx=0;exitDy=0;entryX=0.5;entryY=0;entryDx=0;entryDy=0;" edge="1" parent="1" source="XM0atkz2h3PpJyydnJVA-4" target="XM0atkz2h3PpJyydnJVA-6">
          <mxGeometry relative="1" as="geometry" />
        </mxCell>
        <mxCell id="XM0atkz2h3PpJyydnJVA-4" value="&lt;div&gt;username&lt;/div&gt;" style="shape=parallelogram;perimeter=parallelogramPerimeter;whiteSpace=wrap;html=1;fixedSize=1;" vertex="1" parent="1">
          <mxGeometry x="560" y="280" width="120" height="60" as="geometry" />
        </mxCell>
        <mxCell id="XM0atkz2h3PpJyydnJVA-5" style="edgeStyle=orthogonalEdgeStyle;rounded=0;orthogonalLoop=1;jettySize=auto;html=1;exitX=0.5;exitY=1;exitDx=0;exitDy=0;entryX=0.5;entryY=0;entryDx=0;entryDy=0;" edge="1" parent="1" source="XM0atkz2h3PpJyydnJVA-6" target="XM0atkz2h3PpJyydnJVA-13">
          <mxGeometry relative="1" as="geometry" />
        </mxCell>
        <mxCell id="XM0atkz2h3PpJyydnJVA-6" value="pasword" style="shape=parallelogram;perimeter=parallelogramPerimeter;whiteSpace=wrap;html=1;fixedSize=1;" vertex="1" parent="1">
          <mxGeometry x="560" y="430" width="120" height="60" as="geometry" />
        </mxCell>
        <mxCell id="XM0atkz2h3PpJyydnJVA-7" style="edgeStyle=orthogonalEdgeStyle;rounded=0;orthogonalLoop=1;jettySize=auto;html=1;exitX=0.5;exitY=1;exitDx=0;exitDy=0;entryX=0.5;entryY=0;entryDx=0;entryDy=0;" edge="1" parent="1" source="XM0atkz2h3PpJyydnJVA-13" target="XM0atkz2h3PpJyydnJVA-14">
          <mxGeometry relative="1" as="geometry" />
        </mxCell>
        <mxCell id="XM0atkz2h3PpJyydnJVA-8" value="yes" style="edgeLabel;html=1;align=center;verticalAlign=middle;resizable=0;points=[];" vertex="1" connectable="0" parent="XM0atkz2h3PpJyydnJVA-7">
          <mxGeometry x="-0.1569" relative="1" as="geometry">
            <mxPoint as="offset" />
          </mxGeometry>
        </mxCell>
        <mxCell id="XM0atkz2h3PpJyydnJVA-9" value="iya" style="edgeLabel;html=1;align=center;verticalAlign=middle;resizable=0;points=[];" vertex="1" connectable="0" parent="XM0atkz2h3PpJyydnJVA-7">
          <mxGeometry x="-0.125" y="-3" relative="1" as="geometry">
            <mxPoint as="offset" />
          </mxGeometry>
        </mxCell>
        <mxCell id="XM0atkz2h3PpJyydnJVA-10" style="edgeStyle=orthogonalEdgeStyle;rounded=0;orthogonalLoop=1;jettySize=auto;html=1;exitX=1;exitY=0.5;exitDx=0;exitDy=0;entryX=0;entryY=0.5;entryDx=0;entryDy=0;" edge="1" parent="1" source="XM0atkz2h3PpJyydnJVA-13" target="XM0atkz2h3PpJyydnJVA-22">
          <mxGeometry relative="1" as="geometry" />
        </mxCell>
        <mxCell id="XM0atkz2h3PpJyydnJVA-11" value="&lt;div&gt;no&lt;/div&gt;" style="edgeLabel;html=1;align=center;verticalAlign=middle;resizable=0;points=[];" vertex="1" connectable="0" parent="XM0atkz2h3PpJyydnJVA-10">
          <mxGeometry x="-0.0092" y="-1" relative="1" as="geometry">
            <mxPoint as="offset" />
          </mxGeometry>
        </mxCell>
        <mxCell id="XM0atkz2h3PpJyydnJVA-12" value="tidak" style="edgeLabel;html=1;align=center;verticalAlign=middle;resizable=0;points=[];" vertex="1" connectable="0" parent="XM0atkz2h3PpJyydnJVA-10">
          <mxGeometry x="0.1111" y="-6" relative="1" as="geometry">
            <mxPoint as="offset" />
          </mxGeometry>
        </mxCell>
        <mxCell id="XM0atkz2h3PpJyydnJVA-13" value="username == &quot;febri&quot; &amp;amp;&amp;amp; password == &quot;2409106090&quot;" style="rhombus;whiteSpace=wrap;html=1;" vertex="1" parent="1">
          <mxGeometry x="560" y="590" width="120" height="120" as="geometry" />
        </mxCell>
        <mxCell id="XM0atkz2h3PpJyydnJVA-14" value="menu admin" style="verticalLabelPosition=bottom;verticalAlign=top;html=1;shape=offPageConnector;rounded=0;size=0.5;" vertex="1" parent="1">
          <mxGeometry x="590" y="790" width="60" height="60" as="geometry" />
        </mxCell>
        <mxCell id="XM0atkz2h3PpJyydnJVA-15" style="edgeStyle=orthogonalEdgeStyle;rounded=0;orthogonalLoop=1;jettySize=auto;html=1;exitX=1;exitY=0.5;exitDx=0;exitDy=0;entryX=0;entryY=0.5;entryDx=0;entryDy=0;" edge="1" parent="1" source="XM0atkz2h3PpJyydnJVA-22" target="XM0atkz2h3PpJyydnJVA-24">
          <mxGeometry relative="1" as="geometry" />
        </mxCell>
        <mxCell id="XM0atkz2h3PpJyydnJVA-16" value="no" style="edgeLabel;html=1;align=center;verticalAlign=middle;resizable=0;points=[];" vertex="1" connectable="0" parent="XM0atkz2h3PpJyydnJVA-15">
          <mxGeometry x="-0.2043" y="1" relative="1" as="geometry">
            <mxPoint as="offset" />
          </mxGeometry>
        </mxCell>
        <mxCell id="XM0atkz2h3PpJyydnJVA-17" value="tidak" style="edgeLabel;html=1;align=center;verticalAlign=middle;resizable=0;points=[];" vertex="1" connectable="0" parent="XM0atkz2h3PpJyydnJVA-15">
          <mxGeometry x="-0.2" y="2" relative="1" as="geometry">
            <mxPoint as="offset" />
          </mxGeometry>
        </mxCell>
        <mxCell id="XM0atkz2h3PpJyydnJVA-18" style="edgeStyle=orthogonalEdgeStyle;rounded=0;orthogonalLoop=1;jettySize=auto;html=1;exitX=0.5;exitY=1;exitDx=0;exitDy=0;entryX=0.5;entryY=0;entryDx=0;entryDy=0;" edge="1" parent="1" source="XM0atkz2h3PpJyydnJVA-22" target="XM0atkz2h3PpJyydnJVA-23">
          <mxGeometry relative="1" as="geometry" />
        </mxCell>
        <mxCell id="XM0atkz2h3PpJyydnJVA-19" value="yes" style="edgeLabel;html=1;align=center;verticalAlign=middle;resizable=0;points=[];" vertex="1" connectable="0" parent="XM0atkz2h3PpJyydnJVA-18">
          <mxGeometry x="-0.2603" y="1" relative="1" as="geometry">
            <mxPoint as="offset" />
          </mxGeometry>
        </mxCell>
        <mxCell id="XM0atkz2h3PpJyydnJVA-20" value="\" style="edgeLabel;html=1;align=center;verticalAlign=middle;resizable=0;points=[];" vertex="1" connectable="0" parent="XM0atkz2h3PpJyydnJVA-18">
          <mxGeometry x="-0.275" y="7" relative="1" as="geometry">
            <mxPoint as="offset" />
          </mxGeometry>
        </mxCell>
        <mxCell id="XM0atkz2h3PpJyydnJVA-21" value="iya" style="edgeLabel;html=1;align=center;verticalAlign=middle;resizable=0;points=[];" vertex="1" connectable="0" parent="XM0atkz2h3PpJyydnJVA-18">
          <mxGeometry x="-0.2" y="1" relative="1" as="geometry">
            <mxPoint as="offset" />
          </mxGeometry>
        </mxCell>
        <mxCell id="XM0atkz2h3PpJyydnJVA-22" value="username == &quot;user&quot; &amp;amp;&amp;amp; password == &quot;user123&quot;" style="rhombus;whiteSpace=wrap;html=1;" vertex="1" parent="1">
          <mxGeometry x="770" y="590" width="120" height="120" as="geometry" />
        </mxCell>
        <mxCell id="XM0atkz2h3PpJyydnJVA-23" value="&lt;div&gt;menu user&lt;/div&gt;" style="verticalLabelPosition=bottom;verticalAlign=top;html=1;shape=offPageConnector;rounded=0;size=0.5;" vertex="1" parent="1">
          <mxGeometry x="800" y="790" width="60" height="60" as="geometry" />
        </mxCell>
        <mxCell id="XM0atkz2h3PpJyydnJVA-24" value="kesempatan = 3;" style="rounded=0;whiteSpace=wrap;html=1;" vertex="1" parent="1">
          <mxGeometry x="970" y="620" width="120" height="60" as="geometry" />
        </mxCell>
        <mxCell id="XM0atkz2h3PpJyydnJVA-25" value="selesai" style="strokeWidth=2;html=1;shape=mxgraph.flowchart.terminator;whiteSpace=wrap;" vertex="1" parent="1">
          <mxGeometry x="980" y="750" width="100" height="60" as="geometry" />
        </mxCell>
        <mxCell id="XM0atkz2h3PpJyydnJVA-26" style="edgeStyle=orthogonalEdgeStyle;rounded=0;orthogonalLoop=1;jettySize=auto;html=1;exitX=0.5;exitY=1;exitDx=0;exitDy=0;entryX=0.5;entryY=0;entryDx=0;entryDy=0;entryPerimeter=0;" edge="1" parent="1" source="XM0atkz2h3PpJyydnJVA-24" target="XM0atkz2h3PpJyydnJVA-25">
          <mxGeometry relative="1" as="geometry" />
        </mxCell>
        <mxCell id="XM0atkz2h3PpJyydnJVA-27" style="edgeStyle=orthogonalEdgeStyle;rounded=0;orthogonalLoop=1;jettySize=auto;html=1;exitX=1;exitY=1;exitDx=0;exitDy=0;" edge="1" parent="1">
          <mxGeometry relative="1" as="geometry">
            <mxPoint x="577" y="290.33333333333337" as="targetPoint" />
            <mxPoint x="530" y="290" as="sourcePoint" />
          </mxGeometry>
        </mxCell>
        <mxCell id="XM0atkz2h3PpJyydnJVA-28" style="edgeStyle=orthogonalEdgeStyle;rounded=0;orthogonalLoop=1;jettySize=auto;html=1;exitX=1;exitY=1;exitDx=0;exitDy=0;" edge="1" parent="1">
          <mxGeometry relative="1" as="geometry">
            <mxPoint x="577" y="440.33333333333337" as="targetPoint" />
            <mxPoint x="530" y="440" as="sourcePoint" />
          </mxGeometry>
        </mxCell>
      </root>
    </mxGraphModel>
  </diagram>
  <diagram name="menu admin" id="njuYpuYyb_S5RN0LRJPW">
    <mxGraphModel dx="1162" dy="585" grid="1" gridSize="10" guides="1" tooltips="1" connect="1" arrows="1" fold="1" page="1" pageScale="1" pageWidth="2000" pageHeight="2000" math="0" shadow="0">
      <root>
        <mxCell id="0" />
        <mxCell id="1" parent="0" />
        <mxCell id="jSvemdFxpWDOIP65cunC-1" style="edgeStyle=orthogonalEdgeStyle;rounded=0;orthogonalLoop=1;jettySize=auto;html=1;exitX=0.5;exitY=1;exitDx=0;exitDy=0;exitPerimeter=0;" edge="1" parent="1" source="1uF3l6yk4YEhTciIBFw0-1" target="1uF3l6yk4YEhTciIBFw0-2">
          <mxGeometry relative="1" as="geometry" />
        </mxCell>
        <mxCell id="1uF3l6yk4YEhTciIBFw0-1" value="mulai" style="strokeWidth=2;html=1;shape=mxgraph.flowchart.terminator;whiteSpace=wrap;" parent="1" vertex="1">
          <mxGeometry x="530" y="100" width="100" height="60" as="geometry" />
        </mxCell>
        <mxCell id="j_n6L-VyX9B6gS_xzooL-14" style="edgeStyle=orthogonalEdgeStyle;rounded=0;orthogonalLoop=1;jettySize=auto;html=1;exitX=0.5;exitY=1;exitDx=0;exitDy=0;" parent="1" source="1uF3l6yk4YEhTciIBFw0-2" target="1uF3l6yk4YEhTciIBFw0-5" edge="1">
          <mxGeometry relative="1" as="geometry" />
        </mxCell>
        <mxCell id="1uF3l6yk4YEhTciIBFw0-2" value="&lt;div&gt;&amp;nbsp;Menu Admin&amp;nbsp;&lt;/div&gt;&lt;div&gt;1. Tambah Robux&lt;/div&gt;&lt;div&gt;2. Tampilkan Robux&lt;/div&gt;&lt;div&gt;3. Edit Robux&lt;/div&gt;&lt;div&gt;4. Hapus Robux&lt;/div&gt;&lt;div&gt;5. Logout&lt;/div&gt;&lt;div&gt;6. Keluar dari Program&lt;/div&gt;" style="shape=parallelogram;perimeter=parallelogramPerimeter;whiteSpace=wrap;html=1;fixedSize=1;" parent="1" vertex="1">
          <mxGeometry x="500" y="240" width="160" height="100" as="geometry" />
        </mxCell>
        <mxCell id="j_n6L-VyX9B6gS_xzooL-16" style="edgeStyle=orthogonalEdgeStyle;rounded=0;orthogonalLoop=1;jettySize=auto;html=1;exitX=1;exitY=0.5;exitDx=0;exitDy=0;entryX=0;entryY=0.5;entryDx=0;entryDy=0;" parent="1" source="1uF3l6yk4YEhTciIBFw0-4" target="1uF3l6yk4YEhTciIBFw0-6" edge="1">
          <mxGeometry relative="1" as="geometry" />
        </mxCell>
        <mxCell id="1uF3l6yk4YEhTciIBFw0-4" value="masukkan item&lt;br&gt;robux" style="shape=parallelogram;perimeter=parallelogramPerimeter;whiteSpace=wrap;html=1;fixedSize=1;" parent="1" vertex="1">
          <mxGeometry x="710" y="420" width="120" height="60" as="geometry" />
        </mxCell>
        <mxCell id="j_n6L-VyX9B6gS_xzooL-13" style="edgeStyle=orthogonalEdgeStyle;rounded=0;orthogonalLoop=1;jettySize=auto;html=1;exitX=0.5;exitY=1;exitDx=0;exitDy=0;entryX=0.5;entryY=0;entryDx=0;entryDy=0;" parent="1" source="1uF3l6yk4YEhTciIBFw0-5" target="1uF3l6yk4YEhTciIBFw0-8" edge="1">
          <mxGeometry relative="1" as="geometry" />
        </mxCell>
        <mxCell id="vEPqdSj50WjY-LM4iuJB-2" value="tidak" style="edgeLabel;html=1;align=center;verticalAlign=middle;resizable=0;points=[];" vertex="1" connectable="0" parent="j_n6L-VyX9B6gS_xzooL-13">
          <mxGeometry x="-0.1293" y="1" relative="1" as="geometry">
            <mxPoint as="offset" />
          </mxGeometry>
        </mxCell>
        <mxCell id="j_n6L-VyX9B6gS_xzooL-15" style="edgeStyle=orthogonalEdgeStyle;rounded=0;orthogonalLoop=1;jettySize=auto;html=1;exitX=1;exitY=0.5;exitDx=0;exitDy=0;" parent="1" source="1uF3l6yk4YEhTciIBFw0-5" target="1uF3l6yk4YEhTciIBFw0-4" edge="1">
          <mxGeometry relative="1" as="geometry" />
        </mxCell>
        <mxCell id="vEPqdSj50WjY-LM4iuJB-1" value="iya" style="edgeLabel;html=1;align=center;verticalAlign=middle;resizable=0;points=[];" vertex="1" connectable="0" parent="j_n6L-VyX9B6gS_xzooL-15">
          <mxGeometry x="-0.2105" y="2" relative="1" as="geometry">
            <mxPoint as="offset" />
          </mxGeometry>
        </mxCell>
        <mxCell id="1uF3l6yk4YEhTciIBFw0-5" value="1" style="rhombus;whiteSpace=wrap;html=1;" parent="1" vertex="1">
          <mxGeometry x="540" y="410" width="80" height="80" as="geometry" />
        </mxCell>
        <mxCell id="j_n6L-VyX9B6gS_xzooL-17" style="edgeStyle=orthogonalEdgeStyle;rounded=0;orthogonalLoop=1;jettySize=auto;html=1;exitX=1;exitY=0.5;exitDx=0;exitDy=0;entryX=0;entryY=0.5;entryDx=0;entryDy=0;" parent="1" source="1uF3l6yk4YEhTciIBFw0-6" target="1uF3l6yk4YEhTciIBFw0-7" edge="1">
          <mxGeometry relative="1" as="geometry" />
        </mxCell>
        <mxCell id="1uF3l6yk4YEhTciIBFw0-6" value="masukkan harga" style="shape=parallelogram;perimeter=parallelogramPerimeter;whiteSpace=wrap;html=1;fixedSize=1;" parent="1" vertex="1">
          <mxGeometry x="900" y="420" width="120" height="60" as="geometry" />
        </mxCell>
        <mxCell id="1uF3l6yk4YEhTciIBFw0-12" style="edgeStyle=orthogonalEdgeStyle;rounded=0;orthogonalLoop=1;jettySize=auto;html=1;exitX=1;exitY=1;exitDx=0;exitDy=0;" parent="1" source="1uF3l6yk4YEhTciIBFw0-7" edge="1">
          <mxGeometry relative="1" as="geometry">
            <mxPoint x="1250" y="471.28571428571433" as="targetPoint" />
          </mxGeometry>
        </mxCell>
        <mxCell id="1uF3l6yk4YEhTciIBFw0-7" value="Item robux berhasil ditambahkan!" style="shape=parallelogram;perimeter=parallelogramPerimeter;whiteSpace=wrap;html=1;fixedSize=1;" parent="1" vertex="1">
          <mxGeometry x="1100" y="420" width="120" height="60" as="geometry" />
        </mxCell>
        <mxCell id="j_n6L-VyX9B6gS_xzooL-21" style="edgeStyle=orthogonalEdgeStyle;rounded=0;orthogonalLoop=1;jettySize=auto;html=1;exitX=1;exitY=0.5;exitDx=0;exitDy=0;entryX=0;entryY=0.5;entryDx=0;entryDy=0;" parent="1" source="1uF3l6yk4YEhTciIBFw0-8" target="1uF3l6yk4YEhTciIBFw0-9" edge="1">
          <mxGeometry relative="1" as="geometry" />
        </mxCell>
        <mxCell id="vEPqdSj50WjY-LM4iuJB-3" value="iya" style="edgeLabel;html=1;align=center;verticalAlign=middle;resizable=0;points=[];" vertex="1" connectable="0" parent="j_n6L-VyX9B6gS_xzooL-21">
          <mxGeometry x="-0.2921" y="1" relative="1" as="geometry">
            <mxPoint as="offset" />
          </mxGeometry>
        </mxCell>
        <mxCell id="PL7O7n69kIrVxol_XLNx-8" style="edgeStyle=orthogonalEdgeStyle;rounded=0;orthogonalLoop=1;jettySize=auto;html=1;exitX=0.5;exitY=1;exitDx=0;exitDy=0;entryX=0.5;entryY=0;entryDx=0;entryDy=0;" edge="1" parent="1" source="1uF3l6yk4YEhTciIBFw0-8" target="PL7O7n69kIrVxol_XLNx-1">
          <mxGeometry relative="1" as="geometry" />
        </mxCell>
        <mxCell id="1uF3l6yk4YEhTciIBFw0-8" value="2" style="rhombus;whiteSpace=wrap;html=1;" parent="1" vertex="1">
          <mxGeometry x="540" y="560" width="80" height="80" as="geometry" />
        </mxCell>
        <mxCell id="1uF3l6yk4YEhTciIBFw0-15" style="edgeStyle=orthogonalEdgeStyle;rounded=0;orthogonalLoop=1;jettySize=auto;html=1;exitX=1;exitY=1;exitDx=0;exitDy=0;" parent="1" source="1uF3l6yk4YEhTciIBFw0-9" edge="1">
          <mxGeometry relative="1" as="geometry">
            <mxPoint x="850" y="621.5714285714286" as="targetPoint" />
          </mxGeometry>
        </mxCell>
        <mxCell id="j_n6L-VyX9B6gS_xzooL-22" style="edgeStyle=orthogonalEdgeStyle;rounded=0;orthogonalLoop=1;jettySize=auto;html=1;exitX=1;exitY=0.5;exitDx=0;exitDy=0;" parent="1" source="1uF3l6yk4YEhTciIBFw0-9" edge="1">
          <mxGeometry relative="1" as="geometry">
            <mxPoint x="1340" y="450" as="targetPoint" />
          </mxGeometry>
        </mxCell>
        <mxCell id="1uF3l6yk4YEhTciIBFw0-9" value="daftar robux" style="shape=parallelogram;perimeter=parallelogramPerimeter;whiteSpace=wrap;html=1;fixedSize=1;" parent="1" vertex="1">
          <mxGeometry x="700" y="570" width="120" height="60" as="geometry" />
        </mxCell>
        <mxCell id="j_n6L-VyX9B6gS_xzooL-11" style="edgeStyle=orthogonalEdgeStyle;rounded=0;orthogonalLoop=1;jettySize=auto;html=1;exitX=0.5;exitY=1;exitDx=0;exitDy=0;entryX=0.5;entryY=0;entryDx=0;entryDy=0;" parent="1" source="1uF3l6yk4YEhTciIBFw0-16" target="1uF3l6yk4YEhTciIBFw0-20" edge="1">
          <mxGeometry relative="1" as="geometry" />
        </mxCell>
        <mxCell id="vEPqdSj50WjY-LM4iuJB-6" value="tidak" style="edgeLabel;html=1;align=center;verticalAlign=middle;resizable=0;points=[];" vertex="1" connectable="0" parent="j_n6L-VyX9B6gS_xzooL-11">
          <mxGeometry x="-0.2698" y="2" relative="1" as="geometry">
            <mxPoint as="offset" />
          </mxGeometry>
        </mxCell>
        <mxCell id="j_n6L-VyX9B6gS_xzooL-23" style="edgeStyle=orthogonalEdgeStyle;rounded=0;orthogonalLoop=1;jettySize=auto;html=1;exitX=1;exitY=0.5;exitDx=0;exitDy=0;" parent="1" source="1uF3l6yk4YEhTciIBFw0-16" target="1uF3l6yk4YEhTciIBFw0-17" edge="1">
          <mxGeometry relative="1" as="geometry" />
        </mxCell>
        <mxCell id="vEPqdSj50WjY-LM4iuJB-5" value="iya" style="edgeLabel;html=1;align=center;verticalAlign=middle;resizable=0;points=[];" vertex="1" connectable="0" parent="j_n6L-VyX9B6gS_xzooL-23">
          <mxGeometry x="-0.0369" relative="1" as="geometry">
            <mxPoint as="offset" />
          </mxGeometry>
        </mxCell>
        <mxCell id="1uF3l6yk4YEhTciIBFw0-16" value="4" style="rhombus;whiteSpace=wrap;html=1;" parent="1" vertex="1">
          <mxGeometry x="540" y="870" width="80" height="80" as="geometry" />
        </mxCell>
        <mxCell id="j_n6L-VyX9B6gS_xzooL-24" style="edgeStyle=orthogonalEdgeStyle;rounded=0;orthogonalLoop=1;jettySize=auto;html=1;exitX=1;exitY=0.5;exitDx=0;exitDy=0;" parent="1" source="1uF3l6yk4YEhTciIBFw0-17" target="1uF3l6yk4YEhTciIBFw0-18" edge="1">
          <mxGeometry relative="1" as="geometry" />
        </mxCell>
        <mxCell id="1uF3l6yk4YEhTciIBFw0-17" value="masukkan nomor&lt;br&gt;item yang ingin&lt;br&gt;dihapus" style="shape=parallelogram;perimeter=parallelogramPerimeter;whiteSpace=wrap;html=1;fixedSize=1;" parent="1" vertex="1">
          <mxGeometry x="690" y="880" width="120" height="60" as="geometry" />
        </mxCell>
        <mxCell id="1uF3l6yk4YEhTciIBFw0-19" style="edgeStyle=orthogonalEdgeStyle;rounded=0;orthogonalLoop=1;jettySize=auto;html=1;exitX=1;exitY=1;exitDx=0;exitDy=0;" parent="1" source="1uF3l6yk4YEhTciIBFw0-18" edge="1">
          <mxGeometry relative="1" as="geometry">
            <mxPoint x="1020" y="931.3103448275863" as="targetPoint" />
          </mxGeometry>
        </mxCell>
        <mxCell id="j_n6L-VyX9B6gS_xzooL-25" style="edgeStyle=orthogonalEdgeStyle;rounded=0;orthogonalLoop=1;jettySize=auto;html=1;exitX=1;exitY=0.5;exitDx=0;exitDy=0;" parent="1" source="1uF3l6yk4YEhTciIBFw0-18" edge="1">
          <mxGeometry relative="1" as="geometry">
            <mxPoint x="1340" y="600" as="targetPoint" />
          </mxGeometry>
        </mxCell>
        <mxCell id="1uF3l6yk4YEhTciIBFw0-18" value="Item robux berhasil dihapus!" style="shape=parallelogram;perimeter=parallelogramPerimeter;whiteSpace=wrap;html=1;fixedSize=1;" parent="1" vertex="1">
          <mxGeometry x="880" y="880" width="120" height="60" as="geometry" />
        </mxCell>
        <mxCell id="j_n6L-VyX9B6gS_xzooL-8" style="edgeStyle=orthogonalEdgeStyle;rounded=0;orthogonalLoop=1;jettySize=auto;html=1;exitX=1;exitY=0.5;exitDx=0;exitDy=0;" parent="1" source="1uF3l6yk4YEhTciIBFw0-20" target="j_n6L-VyX9B6gS_xzooL-1" edge="1">
          <mxGeometry relative="1" as="geometry" />
        </mxCell>
        <mxCell id="vEPqdSj50WjY-LM4iuJB-7" value="iya" style="edgeLabel;html=1;align=center;verticalAlign=middle;resizable=0;points=[];" vertex="1" connectable="0" parent="j_n6L-VyX9B6gS_xzooL-8">
          <mxGeometry x="-0.0131" y="2" relative="1" as="geometry">
            <mxPoint as="offset" />
          </mxGeometry>
        </mxCell>
        <mxCell id="j_n6L-VyX9B6gS_xzooL-10" style="edgeStyle=orthogonalEdgeStyle;rounded=0;orthogonalLoop=1;jettySize=auto;html=1;exitX=0.5;exitY=1;exitDx=0;exitDy=0;entryX=0.5;entryY=0;entryDx=0;entryDy=0;" parent="1" source="1uF3l6yk4YEhTciIBFw0-20" target="j_n6L-VyX9B6gS_xzooL-2" edge="1">
          <mxGeometry relative="1" as="geometry" />
        </mxCell>
        <mxCell id="vEPqdSj50WjY-LM4iuJB-8" value="tidak" style="edgeLabel;html=1;align=center;verticalAlign=middle;resizable=0;points=[];" vertex="1" connectable="0" parent="j_n6L-VyX9B6gS_xzooL-10">
          <mxGeometry x="-0.5429" y="3" relative="1" as="geometry">
            <mxPoint as="offset" />
          </mxGeometry>
        </mxCell>
        <mxCell id="1uF3l6yk4YEhTciIBFw0-20" value="5" style="rhombus;whiteSpace=wrap;html=1;" parent="1" vertex="1">
          <mxGeometry x="540" y="1010" width="80" height="80" as="geometry" />
        </mxCell>
        <mxCell id="1uF3l6yk4YEhTciIBFw0-21" value="selesai" style="strokeWidth=2;html=1;shape=mxgraph.flowchart.terminator;whiteSpace=wrap;" parent="1" vertex="1">
          <mxGeometry x="530" y="1510" width="100" height="60" as="geometry" />
        </mxCell>
        <mxCell id="j_n6L-VyX9B6gS_xzooL-1" value="&lt;div&gt;menu&lt;/div&gt;" style="verticalLabelPosition=bottom;verticalAlign=top;html=1;shape=offPageConnector;rounded=0;size=0.5;" parent="1" vertex="1">
          <mxGeometry x="700" y="1020" width="60" height="60" as="geometry" />
        </mxCell>
        <mxCell id="jSvemdFxpWDOIP65cunC-3" style="edgeStyle=orthogonalEdgeStyle;rounded=0;orthogonalLoop=1;jettySize=auto;html=1;exitX=1;exitY=0.5;exitDx=0;exitDy=0;entryX=0;entryY=0.5;entryDx=0;entryDy=0;" edge="1" parent="1" source="j_n6L-VyX9B6gS_xzooL-2" target="jSvemdFxpWDOIP65cunC-2">
          <mxGeometry relative="1" as="geometry" />
        </mxCell>
        <mxCell id="vEPqdSj50WjY-LM4iuJB-9" value="tidak" style="edgeLabel;html=1;align=center;verticalAlign=middle;resizable=0;points=[];" vertex="1" connectable="0" parent="jSvemdFxpWDOIP65cunC-3">
          <mxGeometry x="-0.0845" y="2" relative="1" as="geometry">
            <mxPoint as="offset" />
          </mxGeometry>
        </mxCell>
        <mxCell id="j_n6L-VyX9B6gS_xzooL-2" value="6" style="rhombus;whiteSpace=wrap;html=1;" parent="1" vertex="1">
          <mxGeometry x="540" y="1260" width="80" height="80" as="geometry" />
        </mxCell>
        <mxCell id="j_n6L-VyX9B6gS_xzooL-7" style="edgeStyle=orthogonalEdgeStyle;rounded=0;orthogonalLoop=1;jettySize=auto;html=1;exitX=1;exitY=1;exitDx=0;exitDy=0;" parent="1" edge="1">
          <mxGeometry relative="1" as="geometry">
            <mxPoint x="659.94" y="1439.9957142857143" as="targetPoint" />
            <mxPoint x="622.7971428571432" y="1440.1385714285716" as="sourcePoint" />
          </mxGeometry>
        </mxCell>
        <mxCell id="j_n6L-VyX9B6gS_xzooL-6" style="edgeStyle=orthogonalEdgeStyle;rounded=0;orthogonalLoop=1;jettySize=auto;html=1;exitX=0.5;exitY=1;exitDx=0;exitDy=0;entryX=0.5;entryY=0;entryDx=0;entryDy=0;entryPerimeter=0;" parent="1" source="j_n6L-VyX9B6gS_xzooL-4" target="1uF3l6yk4YEhTciIBFw0-21" edge="1">
          <mxGeometry relative="1" as="geometry">
            <mxPoint x="580" y="1340" as="sourcePoint" />
          </mxGeometry>
        </mxCell>
        <mxCell id="j_n6L-VyX9B6gS_xzooL-20" style="edgeStyle=orthogonalEdgeStyle;rounded=0;orthogonalLoop=1;jettySize=auto;html=1;exitX=1;exitY=0.5;exitDx=0;exitDy=0;entryX=1.004;entryY=0.12;entryDx=0;entryDy=0;entryPerimeter=0;" parent="1" source="1uF3l6yk4YEhTciIBFw0-7" target="1uF3l6yk4YEhTciIBFw0-2" edge="1">
          <mxGeometry relative="1" as="geometry">
            <Array as="points">
              <mxPoint x="1340" y="450" />
              <mxPoint x="1340" y="252" />
            </Array>
          </mxGeometry>
        </mxCell>
        <mxCell id="jSvemdFxpWDOIP65cunC-6" style="edgeStyle=orthogonalEdgeStyle;rounded=0;orthogonalLoop=1;jettySize=auto;html=1;exitX=1;exitY=0.5;exitDx=0;exitDy=0;" edge="1" parent="1" source="jSvemdFxpWDOIP65cunC-2">
          <mxGeometry relative="1" as="geometry">
            <mxPoint x="1340" y="760" as="targetPoint" />
            <Array as="points">
              <mxPoint x="1340" y="1300" />
            </Array>
          </mxGeometry>
        </mxCell>
        <mxCell id="PL7O7n69kIrVxol_XLNx-4" style="edgeStyle=orthogonalEdgeStyle;rounded=0;orthogonalLoop=1;jettySize=auto;html=1;exitX=1;exitY=1;exitDx=0;exitDy=0;" edge="1" parent="1" source="jSvemdFxpWDOIP65cunC-2">
          <mxGeometry relative="1" as="geometry">
            <mxPoint x="960" y="1321" as="targetPoint" />
          </mxGeometry>
        </mxCell>
        <mxCell id="jSvemdFxpWDOIP65cunC-2" value="Pilihan tidak valid!" style="shape=parallelogram;perimeter=parallelogramPerimeter;whiteSpace=wrap;html=1;fixedSize=1;" vertex="1" parent="1">
          <mxGeometry x="810" y="1270" width="120" height="60" as="geometry" />
        </mxCell>
        <mxCell id="mIjUzpbQhhgnYNNvOCx8-1" style="edgeStyle=orthogonalEdgeStyle;rounded=0;orthogonalLoop=1;jettySize=auto;html=1;exitX=1;exitY=1;exitDx=0;exitDy=0;" edge="1" parent="1">
          <mxGeometry relative="1" as="geometry">
            <mxPoint x="727" y="430.33333333333337" as="targetPoint" />
            <mxPoint x="680" y="430" as="sourcePoint" />
          </mxGeometry>
        </mxCell>
        <mxCell id="mIjUzpbQhhgnYNNvOCx8-2" style="edgeStyle=orthogonalEdgeStyle;rounded=0;orthogonalLoop=1;jettySize=auto;html=1;exitX=1;exitY=1;exitDx=0;exitDy=0;" edge="1" parent="1">
          <mxGeometry relative="1" as="geometry">
            <mxPoint x="917" y="430.33333333333337" as="targetPoint" />
            <mxPoint x="870" y="430" as="sourcePoint" />
          </mxGeometry>
        </mxCell>
        <mxCell id="mIjUzpbQhhgnYNNvOCx8-3" style="edgeStyle=orthogonalEdgeStyle;rounded=0;orthogonalLoop=1;jettySize=auto;html=1;exitX=1;exitY=1;exitDx=0;exitDy=0;" edge="1" parent="1">
          <mxGeometry relative="1" as="geometry">
            <mxPoint x="707" y="890.3333333333334" as="targetPoint" />
            <mxPoint x="660" y="890" as="sourcePoint" />
          </mxGeometry>
        </mxCell>
        <mxCell id="f6V1p3v9HBC4WXs6-smF-1" style="edgeStyle=orthogonalEdgeStyle;rounded=0;orthogonalLoop=1;jettySize=auto;html=1;exitX=1;exitY=1;exitDx=0;exitDy=0;" edge="1" parent="1">
          <mxGeometry relative="1" as="geometry">
            <mxPoint x="517" y="260.33333333333337" as="targetPoint" />
            <mxPoint x="470" y="260" as="sourcePoint" />
          </mxGeometry>
        </mxCell>
        <mxCell id="PL7O7n69kIrVxol_XLNx-9" style="edgeStyle=orthogonalEdgeStyle;rounded=0;orthogonalLoop=1;jettySize=auto;html=1;exitX=0.5;exitY=1;exitDx=0;exitDy=0;entryX=0.5;entryY=0;entryDx=0;entryDy=0;" edge="1" parent="1" source="PL7O7n69kIrVxol_XLNx-1" target="1uF3l6yk4YEhTciIBFw0-16">
          <mxGeometry relative="1" as="geometry" />
        </mxCell>
        <mxCell id="PL7O7n69kIrVxol_XLNx-13" style="edgeStyle=orthogonalEdgeStyle;rounded=0;orthogonalLoop=1;jettySize=auto;html=1;exitX=1;exitY=0.5;exitDx=0;exitDy=0;entryX=0;entryY=0.5;entryDx=0;entryDy=0;" edge="1" parent="1" source="PL7O7n69kIrVxol_XLNx-1" target="PL7O7n69kIrVxol_XLNx-10">
          <mxGeometry relative="1" as="geometry" />
        </mxCell>
        <mxCell id="PL7O7n69kIrVxol_XLNx-1" value="3" style="rhombus;whiteSpace=wrap;html=1;" vertex="1" parent="1">
          <mxGeometry x="540" y="710" width="80" height="80" as="geometry" />
        </mxCell>
        <mxCell id="PL7O7n69kIrVxol_XLNx-5" value="" style="edgeStyle=orthogonalEdgeStyle;rounded=0;orthogonalLoop=1;jettySize=auto;html=1;exitX=0.5;exitY=1;exitDx=0;exitDy=0;entryX=0.5;entryY=0;entryDx=0;entryDy=0;entryPerimeter=0;" edge="1" parent="1" target="j_n6L-VyX9B6gS_xzooL-4">
          <mxGeometry relative="1" as="geometry">
            <mxPoint x="580" y="1340" as="sourcePoint" />
            <mxPoint x="580" y="1460" as="targetPoint" />
          </mxGeometry>
        </mxCell>
        <mxCell id="PL7O7n69kIrVxol_XLNx-7" value="iya" style="edgeLabel;html=1;align=center;verticalAlign=middle;resizable=0;points=[];" vertex="1" connectable="0" parent="PL7O7n69kIrVxol_XLNx-5">
          <mxGeometry x="-0.2971" y="1" relative="1" as="geometry">
            <mxPoint as="offset" />
          </mxGeometry>
        </mxCell>
        <mxCell id="j_n6L-VyX9B6gS_xzooL-4" value="&lt;div&gt;keluar dari program&lt;/div&gt;" style="shape=parallelogram;perimeter=parallelogramPerimeter;whiteSpace=wrap;html=1;fixedSize=1;" parent="1" vertex="1">
          <mxGeometry x="520" y="1390" width="120" height="60" as="geometry" />
        </mxCell>
        <mxCell id="PL7O7n69kIrVxol_XLNx-14" style="edgeStyle=orthogonalEdgeStyle;rounded=0;orthogonalLoop=1;jettySize=auto;html=1;exitX=1;exitY=0.75;exitDx=0;exitDy=0;entryX=0;entryY=0.75;entryDx=0;entryDy=0;" edge="1" parent="1" source="PL7O7n69kIrVxol_XLNx-10" target="PL7O7n69kIrVxol_XLNx-11">
          <mxGeometry relative="1" as="geometry" />
        </mxCell>
        <mxCell id="PL7O7n69kIrVxol_XLNx-10" value="Masukkan nomor item yang ingin diedit" style="shape=parallelogram;perimeter=parallelogramPerimeter;whiteSpace=wrap;html=1;fixedSize=1;" vertex="1" parent="1">
          <mxGeometry x="690" y="720" width="120" height="60" as="geometry" />
        </mxCell>
        <mxCell id="PL7O7n69kIrVxol_XLNx-11" value="Masukkan item baru" style="shape=parallelogram;perimeter=parallelogramPerimeter;whiteSpace=wrap;html=1;fixedSize=1;" vertex="1" parent="1">
          <mxGeometry x="890" y="720" width="120" height="60" as="geometry" />
        </mxCell>
        <mxCell id="PL7O7n69kIrVxol_XLNx-16" style="edgeStyle=orthogonalEdgeStyle;rounded=0;orthogonalLoop=1;jettySize=auto;html=1;exitX=1;exitY=0.75;exitDx=0;exitDy=0;" edge="1" parent="1" source="PL7O7n69kIrVxol_XLNx-12">
          <mxGeometry relative="1" as="geometry">
            <mxPoint x="1340" y="761.1666666666667" as="targetPoint" />
          </mxGeometry>
        </mxCell>
        <mxCell id="PL7O7n69kIrVxol_XLNx-12" value="Masukkan harga baru" style="shape=parallelogram;perimeter=parallelogramPerimeter;whiteSpace=wrap;html=1;fixedSize=1;" vertex="1" parent="1">
          <mxGeometry x="1120" y="720" width="120" height="60" as="geometry" />
        </mxCell>
        <mxCell id="PL7O7n69kIrVxol_XLNx-15" style="edgeStyle=orthogonalEdgeStyle;rounded=0;orthogonalLoop=1;jettySize=auto;html=1;exitX=1;exitY=1;exitDx=0;exitDy=0;entryX=0;entryY=0.867;entryDx=0;entryDy=0;entryPerimeter=0;" edge="1" parent="1" source="PL7O7n69kIrVxol_XLNx-11" target="PL7O7n69kIrVxol_XLNx-12">
          <mxGeometry relative="1" as="geometry" />
        </mxCell>
        <mxCell id="PL7O7n69kIrVxol_XLNx-17" style="edgeStyle=orthogonalEdgeStyle;rounded=0;orthogonalLoop=1;jettySize=auto;html=1;exitX=1;exitY=1;exitDx=0;exitDy=0;" edge="1" parent="1">
          <mxGeometry relative="1" as="geometry">
            <mxPoint x="707" y="730.3333333333334" as="targetPoint" />
            <mxPoint x="660" y="730" as="sourcePoint" />
          </mxGeometry>
        </mxCell>
        <mxCell id="PL7O7n69kIrVxol_XLNx-18" style="edgeStyle=orthogonalEdgeStyle;rounded=0;orthogonalLoop=1;jettySize=auto;html=1;exitX=1;exitY=1;exitDx=0;exitDy=0;" edge="1" parent="1">
          <mxGeometry relative="1" as="geometry">
            <mxPoint x="907" y="730.3333333333334" as="targetPoint" />
            <mxPoint x="860" y="730" as="sourcePoint" />
          </mxGeometry>
        </mxCell>
        <mxCell id="PL7O7n69kIrVxol_XLNx-19" style="edgeStyle=orthogonalEdgeStyle;rounded=0;orthogonalLoop=1;jettySize=auto;html=1;exitX=1;exitY=1;exitDx=0;exitDy=0;" edge="1" parent="1">
          <mxGeometry relative="1" as="geometry">
            <mxPoint x="1137" y="730.3333333333334" as="targetPoint" />
            <mxPoint x="1090" y="730" as="sourcePoint" />
          </mxGeometry>
        </mxCell>
      </root>
    </mxGraphModel>
  </diagram>
  <diagram name="menu user" id="AUcXm5tSvf2Xo2Ty_JTc">
    <mxGraphModel dx="1880" dy="1043" grid="1" gridSize="10" guides="1" tooltips="1" connect="1" arrows="1" fold="1" page="1" pageScale="1" pageWidth="2000" pageHeight="2000" math="0" shadow="0">
      <root>
        <mxCell id="0" />
        <mxCell id="1" parent="0" />
        <mxCell id="1_jnHE10OwbPATrjb4If-1" style="edgeStyle=orthogonalEdgeStyle;rounded=0;orthogonalLoop=1;jettySize=auto;html=1;exitX=0.5;exitY=1;exitDx=0;exitDy=0;exitPerimeter=0;" parent="1" source="LLT3hYu8le20LkYrBF-m-1" target="LLT3hYu8le20LkYrBF-m-3" edge="1">
          <mxGeometry relative="1" as="geometry" />
        </mxCell>
        <mxCell id="LLT3hYu8le20LkYrBF-m-1" value="mulai" style="strokeWidth=2;html=1;shape=mxgraph.flowchart.terminator;whiteSpace=wrap;" parent="1" vertex="1">
          <mxGeometry x="590" y="150" width="100" height="60" as="geometry" />
        </mxCell>
        <mxCell id="LLT3hYu8le20LkYrBF-m-21" style="edgeStyle=orthogonalEdgeStyle;rounded=0;orthogonalLoop=1;jettySize=auto;html=1;exitX=0.5;exitY=1;exitDx=0;exitDy=0;entryX=0.5;entryY=0;entryDx=0;entryDy=0;" parent="1" source="LLT3hYu8le20LkYrBF-m-3" target="LLT3hYu8le20LkYrBF-m-4" edge="1">
          <mxGeometry relative="1" as="geometry" />
        </mxCell>
        <mxCell id="LLT3hYu8le20LkYrBF-m-3" value="&amp;nbsp;Menu User &lt;br&gt;1. Lihat Robux&lt;br&gt;2. Beli Robux&lt;br&gt;3. Logout dan Keluar Program" style="shape=parallelogram;perimeter=parallelogramPerimeter;whiteSpace=wrap;html=1;fixedSize=1;" parent="1" vertex="1">
          <mxGeometry x="570" y="320" width="140" height="70" as="geometry" />
        </mxCell>
        <mxCell id="LLT3hYu8le20LkYrBF-m-20" style="edgeStyle=orthogonalEdgeStyle;rounded=0;orthogonalLoop=1;jettySize=auto;html=1;exitX=0.5;exitY=1;exitDx=0;exitDy=0;entryX=0.5;entryY=0;entryDx=0;entryDy=0;" parent="1" source="LLT3hYu8le20LkYrBF-m-4" target="LLT3hYu8le20LkYrBF-m-5" edge="1">
          <mxGeometry relative="1" as="geometry" />
        </mxCell>
        <mxCell id="9xjnIIp5zhQLHM-wxe3W-2" value="tidak" style="edgeLabel;html=1;align=center;verticalAlign=middle;resizable=0;points=[];" parent="LLT3hYu8le20LkYrBF-m-20" vertex="1" connectable="0">
          <mxGeometry x="-0.4571" y="2" relative="1" as="geometry">
            <mxPoint as="offset" />
          </mxGeometry>
        </mxCell>
        <mxCell id="LLT3hYu8le20LkYrBF-m-22" style="edgeStyle=orthogonalEdgeStyle;rounded=0;orthogonalLoop=1;jettySize=auto;html=1;exitX=1;exitY=0.5;exitDx=0;exitDy=0;entryX=0;entryY=0.5;entryDx=0;entryDy=0;" parent="1" source="LLT3hYu8le20LkYrBF-m-4" target="LLT3hYu8le20LkYrBF-m-7" edge="1">
          <mxGeometry relative="1" as="geometry" />
        </mxCell>
        <mxCell id="9xjnIIp5zhQLHM-wxe3W-1" value="iya" style="edgeLabel;html=1;align=center;verticalAlign=middle;resizable=0;points=[];" parent="LLT3hYu8le20LkYrBF-m-22" vertex="1" connectable="0">
          <mxGeometry x="-0.1" y="2" relative="1" as="geometry">
            <mxPoint as="offset" />
          </mxGeometry>
        </mxCell>
        <mxCell id="LLT3hYu8le20LkYrBF-m-4" value="1" style="rhombus;whiteSpace=wrap;html=1;" parent="1" vertex="1">
          <mxGeometry x="600" y="470" width="80" height="80" as="geometry" />
        </mxCell>
        <mxCell id="LLT3hYu8le20LkYrBF-m-19" style="edgeStyle=orthogonalEdgeStyle;rounded=0;orthogonalLoop=1;jettySize=auto;html=1;exitX=0.5;exitY=1;exitDx=0;exitDy=0;entryX=0.5;entryY=0;entryDx=0;entryDy=0;" parent="1" source="LLT3hYu8le20LkYrBF-m-5" target="LLT3hYu8le20LkYrBF-m-6" edge="1">
          <mxGeometry relative="1" as="geometry" />
        </mxCell>
        <mxCell id="9xjnIIp5zhQLHM-wxe3W-3" value="tidak" style="edgeLabel;html=1;align=center;verticalAlign=middle;resizable=0;points=[];" parent="LLT3hYu8le20LkYrBF-m-19" vertex="1" connectable="0">
          <mxGeometry x="-0.2857" y="2" relative="1" as="geometry">
            <mxPoint as="offset" />
          </mxGeometry>
        </mxCell>
        <mxCell id="LLT3hYu8le20LkYrBF-m-23" style="edgeStyle=orthogonalEdgeStyle;rounded=0;orthogonalLoop=1;jettySize=auto;html=1;exitX=1;exitY=0.5;exitDx=0;exitDy=0;" parent="1" source="LLT3hYu8le20LkYrBF-m-5" target="LLT3hYu8le20LkYrBF-m-8" edge="1">
          <mxGeometry relative="1" as="geometry" />
        </mxCell>
        <mxCell id="9xjnIIp5zhQLHM-wxe3W-4" value="iya" style="edgeLabel;html=1;align=center;verticalAlign=middle;resizable=0;points=[];" parent="LLT3hYu8le20LkYrBF-m-23" vertex="1" connectable="0">
          <mxGeometry x="-0.16" y="-4" relative="1" as="geometry">
            <mxPoint as="offset" />
          </mxGeometry>
        </mxCell>
        <mxCell id="LLT3hYu8le20LkYrBF-m-5" value="2" style="rhombus;whiteSpace=wrap;html=1;" parent="1" vertex="1">
          <mxGeometry x="600" y="620" width="80" height="80" as="geometry" />
        </mxCell>
        <mxCell id="LLT3hYu8le20LkYrBF-m-18" style="edgeStyle=orthogonalEdgeStyle;rounded=0;orthogonalLoop=1;jettySize=auto;html=1;exitX=0.5;exitY=1;exitDx=0;exitDy=0;" parent="1" source="LLT3hYu8le20LkYrBF-m-6" target="LLT3hYu8le20LkYrBF-m-17" edge="1">
          <mxGeometry relative="1" as="geometry" />
        </mxCell>
        <mxCell id="9xjnIIp5zhQLHM-wxe3W-5" value="iya" style="edgeLabel;html=1;align=center;verticalAlign=middle;resizable=0;points=[];" parent="LLT3hYu8le20LkYrBF-m-18" vertex="1" connectable="0">
          <mxGeometry x="-0.3714" y="-1" relative="1" as="geometry">
            <mxPoint as="offset" />
          </mxGeometry>
        </mxCell>
        <mxCell id="1_jnHE10OwbPATrjb4If-3" style="edgeStyle=orthogonalEdgeStyle;rounded=0;orthogonalLoop=1;jettySize=auto;html=1;exitX=1;exitY=0.5;exitDx=0;exitDy=0;entryX=0;entryY=0.5;entryDx=0;entryDy=0;" parent="1" source="LLT3hYu8le20LkYrBF-m-6" target="1_jnHE10OwbPATrjb4If-2" edge="1">
          <mxGeometry relative="1" as="geometry" />
        </mxCell>
        <mxCell id="9xjnIIp5zhQLHM-wxe3W-6" value="tidak" style="edgeLabel;html=1;align=center;verticalAlign=middle;resizable=0;points=[];" parent="1_jnHE10OwbPATrjb4If-3" vertex="1" connectable="0">
          <mxGeometry x="0.1333" y="-1" relative="1" as="geometry">
            <mxPoint as="offset" />
          </mxGeometry>
        </mxCell>
        <mxCell id="LLT3hYu8le20LkYrBF-m-6" value="3" style="rhombus;whiteSpace=wrap;html=1;" parent="1" vertex="1">
          <mxGeometry x="600" y="770" width="80" height="80" as="geometry" />
        </mxCell>
        <mxCell id="LLT3hYu8le20LkYrBF-m-9" style="edgeStyle=orthogonalEdgeStyle;rounded=0;orthogonalLoop=1;jettySize=auto;html=1;exitX=1;exitY=0.75;exitDx=0;exitDy=0;" parent="1" source="LLT3hYu8le20LkYrBF-m-7" edge="1">
          <mxGeometry relative="1" as="geometry">
            <mxPoint x="870" y="521.6551724137931" as="targetPoint" />
          </mxGeometry>
        </mxCell>
        <mxCell id="LLT3hYu8le20LkYrBF-m-7" value="tampilan menu&lt;br&gt;robux" style="shape=parallelogram;perimeter=parallelogramPerimeter;whiteSpace=wrap;html=1;fixedSize=1;" parent="1" vertex="1">
          <mxGeometry x="730" y="480" width="120" height="60" as="geometry" />
        </mxCell>
        <mxCell id="LLT3hYu8le20LkYrBF-m-13" style="edgeStyle=orthogonalEdgeStyle;rounded=0;orthogonalLoop=1;jettySize=auto;html=1;exitX=1;exitY=1;exitDx=0;exitDy=0;" parent="1" source="LLT3hYu8le20LkYrBF-m-8" edge="1">
          <mxGeometry relative="1" as="geometry">
            <mxPoint x="870" y="681.3333333333334" as="targetPoint" />
          </mxGeometry>
        </mxCell>
        <mxCell id="LLT3hYu8le20LkYrBF-m-24" style="edgeStyle=orthogonalEdgeStyle;rounded=0;orthogonalLoop=1;jettySize=auto;html=1;exitX=1;exitY=0.5;exitDx=0;exitDy=0;entryX=0;entryY=0.5;entryDx=0;entryDy=0;" parent="1" source="LLT3hYu8le20LkYrBF-m-8" target="LLT3hYu8le20LkYrBF-m-14" edge="1">
          <mxGeometry relative="1" as="geometry" />
        </mxCell>
        <mxCell id="LLT3hYu8le20LkYrBF-m-8" value="tampilan menu&lt;br&gt;robux" style="shape=parallelogram;perimeter=parallelogramPerimeter;whiteSpace=wrap;html=1;fixedSize=1;" parent="1" vertex="1">
          <mxGeometry x="720" y="630" width="120" height="60" as="geometry" />
        </mxCell>
        <mxCell id="LLT3hYu8le20LkYrBF-m-26" style="edgeStyle=orthogonalEdgeStyle;rounded=0;orthogonalLoop=1;jettySize=auto;html=1;exitX=1;exitY=0.5;exitDx=0;exitDy=0;" parent="1" source="LLT3hYu8le20LkYrBF-m-14" edge="1">
          <mxGeometry relative="1" as="geometry">
            <mxPoint x="1120" y="510" as="targetPoint" />
          </mxGeometry>
        </mxCell>
        <mxCell id="LLT3hYu8le20LkYrBF-m-14" value="Masukkan nomor item yang ingin dibeli" style="shape=parallelogram;perimeter=parallelogramPerimeter;whiteSpace=wrap;html=1;fixedSize=1;" parent="1" vertex="1">
          <mxGeometry x="910" y="630" width="120" height="60" as="geometry" />
        </mxCell>
        <mxCell id="LLT3hYu8le20LkYrBF-m-17" value="selesai" style="strokeWidth=2;html=1;shape=mxgraph.flowchart.terminator;whiteSpace=wrap;" parent="1" vertex="1">
          <mxGeometry x="590" y="920" width="100" height="60" as="geometry" />
        </mxCell>
        <mxCell id="LLT3hYu8le20LkYrBF-m-25" style="edgeStyle=orthogonalEdgeStyle;rounded=0;orthogonalLoop=1;jettySize=auto;html=1;exitX=1;exitY=0.5;exitDx=0;exitDy=0;entryX=1.003;entryY=0.199;entryDx=0;entryDy=0;entryPerimeter=0;" parent="1" source="LLT3hYu8le20LkYrBF-m-7" target="LLT3hYu8le20LkYrBF-m-3" edge="1">
          <mxGeometry relative="1" as="geometry">
            <Array as="points">
              <mxPoint x="1120" y="510" />
              <mxPoint x="1120" y="334" />
            </Array>
          </mxGeometry>
        </mxCell>
        <mxCell id="1_jnHE10OwbPATrjb4If-4" style="edgeStyle=orthogonalEdgeStyle;rounded=0;orthogonalLoop=1;jettySize=auto;html=1;exitX=1;exitY=0.5;exitDx=0;exitDy=0;" parent="1" source="1_jnHE10OwbPATrjb4If-2" edge="1">
          <mxGeometry relative="1" as="geometry">
            <mxPoint x="1120" y="660" as="targetPoint" />
          </mxGeometry>
        </mxCell>
        <mxCell id="1_jnHE10OwbPATrjb4If-5" style="edgeStyle=orthogonalEdgeStyle;rounded=0;orthogonalLoop=1;jettySize=auto;html=1;exitX=1;exitY=1;exitDx=0;exitDy=0;" parent="1" source="1_jnHE10OwbPATrjb4If-2" edge="1">
          <mxGeometry relative="1" as="geometry">
            <mxPoint x="850" y="831" as="targetPoint" />
          </mxGeometry>
        </mxCell>
        <mxCell id="1_jnHE10OwbPATrjb4If-2" value="Pilihan tidak valid!" style="shape=parallelogram;perimeter=parallelogramPerimeter;whiteSpace=wrap;html=1;fixedSize=1;" parent="1" vertex="1">
          <mxGeometry x="710" y="780" width="120" height="60" as="geometry" />
        </mxCell>
        <mxCell id="1_jnHE10OwbPATrjb4If-6" style="edgeStyle=orthogonalEdgeStyle;rounded=0;orthogonalLoop=1;jettySize=auto;html=1;exitX=1;exitY=1;exitDx=0;exitDy=0;" parent="1" edge="1">
          <mxGeometry relative="1" as="geometry">
            <mxPoint x="927" y="640.3333333333334" as="targetPoint" />
            <mxPoint x="880" y="640" as="sourcePoint" />
          </mxGeometry>
        </mxCell>
        <mxCell id="1_jnHE10OwbPATrjb4If-7" style="edgeStyle=orthogonalEdgeStyle;rounded=0;orthogonalLoop=1;jettySize=auto;html=1;exitX=1;exitY=1;exitDx=0;exitDy=0;" parent="1" edge="1">
          <mxGeometry relative="1" as="geometry">
            <mxPoint x="587" y="330.33333333333337" as="targetPoint" />
            <mxPoint x="540" y="330" as="sourcePoint" />
            <Array as="points">
              <mxPoint x="540" y="331" />
              <mxPoint x="564" y="331" />
            </Array>
          </mxGeometry>
        </mxCell>
      </root>
    </mxGraphModel>
  </diagram>
</mxfile>
